<?xml version="1.0" encoding="UTF-8"?>
<svg id="Livello_1" data-name="Livello 1" xmlns="http://www.w3.org/2000/svg" viewBox="0 0 986.35 1014.9">
  <path d="M978.09.07c-12.13,1.2-45.79,47.12-54.25,58.3-107.97,142.57-202.32,295-307.26,439.59-29.82,41.09-61.6,81.21-97.58,117.04-13.09-5.32-31.58-16.9-46.23-14.05-5.02.98-7.51,7.39-3.99,11.7,3.74,4.58,33.96,14.03,32.95,19.75-.98,5.5-38.97,30.89-45.93,34.26-23.38,11.3-56.27,18.61-54.81-18.63.56-14.27,16.84-70.91,24.35-82.9,9.41-15.02,40.07-39.97,53.89-54.65,81.58-86.66,186.64-215.21,242.48-319.59,9.19-17.18,42.12-78.53-1.85-71.62-32.95,5.17-97.87,83.68-119.05,110.94-65.73,84.61-123.8,180.96-168.98,278.09-11.45,24.61-15.11,43.11-34.67,63.53-34.56,36.09-79.81,74.89-117.56,108.56-46.62,41.58-152.74,136.67-214.03,141.3-47.59,3.6-50.95-41.64-46.83-77.84,12.16-106.83,97.66-226.74,165.85-307.06,54.84-64.61,119.24-131.06,189.68-178.58,18-12.14,62.1-40.19,83.02-39.8,18.21.34,9.14,28.87,5.49,39.16-8.41,23.7-23.61,46.3-38.28,66.49-.52,11.62,9.73,8.82,16,2.98,15.83-14.73,40.91-65.2,43.95-86.56,2.68-18.83-.22-38.91-23.33-38.94-50.61-.08-156.86,87.04-194.48,122.2C167.59,416.32,20.99,598.56,2.13,735.01c-13.02,94.21,34.62,127.99,118.55,83.66,105.38-55.66,183.89-153.02,275.19-226.79.07-.08.14-.13.21-.2.9-1.01,1.08-3.18,3.67-2.37.62.49-2.31,3.17-2.58,3.86-12.48,31.64-28.51,100.82,25.2,100.88,31.4.04,67.12-30.47,89.32-50.4,11.44,9,19.35,29.35,16.69,43.91-3.17,17.36-16.04,46.03-21.73,64.84-18.18,60.11-35.39,124.26-48.12,185.75-3.71,17.9-11.26,47.53-8.09,64.97,1.98,10.89,10.5,13.95,20.11,10.36,27.37-10.21,46.13-74.68,53.88-101.16,17.08-58.29,29.2-124.45,25.19-185.4-.69-10.47-5.36-26.89-5.04-36.08.15-4.36,12.32-40.73,14.26-41.94,12.33,1.79,24.2,6.31,36.68,7.57,27.21,2.74,56.95-2.09,83.02-9.98,11.57-3.5,28.36-12.66,38.73-14.24,4.76-.73,11.05.6,14.94-.56,6.05-1.81,10.66-24.04-.72-22.74-6.42.74-26.42,12.6-34.58,15.86-40.62,16.21-88.19,24.14-130.49,9.69,14.03-33.26,32.12-65.15,50.17-96.46,57.56-99.81,131.12-174.19,201.01-264.15,53.32-68.63,130.4-168.35,163.4-247.49,2.9-6.96,11.84-27.77-2.92-26.32ZM593.8,268.44c26.43-35.94,58.19-76.61,91.49-106.21,3.98-3.54,35.28-28.77,38.78-25.17,4.27,4.4-19.14,50.53-23.03,57.71-55.36,102.28-151.39,223.91-231.48,308.63-5.6,5.93-11.59,11.72-22.05,22.12-.53.53-1.04,1.09-1.48,1.69-.58.81-2.24,2.64-6.93,6.06,40.88-91.67,95.28-184.04,154.71-264.84ZM524.2,868.15c-7.18,29.48-27.21,100.37-50.8,118.47-1.3.99-1.64,2.51-3.88,1.92-.59-15.74,2.81-31.31,5.57-46.75,11.86-66.26,31.9-149.44,55.13-212.34,1.92-5.19,3.74-12.68,7.76-16.13.33,8.51,2.32,18.05,2.65,26.44,1.62,41.52-6.63,88.14-16.44,128.38ZM537.35,655.16c-1.78-3.2-13.75-20.02-12.26-21.94,6.01,2.5,11.46,7.03,18.07,7.77,1.15,1.26-4.24,14.17-5.81,14.17ZM572.89,581.54c-7.31,14.49-13.47,29.69-21.3,43.95-2.93,3.04-19.17-2.64-14.92-7.16l34.93-38.08c3.62-4.08,6.45-7.75,6.45-7.75,0,0-4.35,7.45-5.16,9.04ZM934.68,77.61c-49.08,87.92-120.71,182.35-184.77,259.72-3.41,4.11-6.33,8.66-10.07,12.54-1.26,1.3-1.28,3.66-4.14,2.95,3.7-6.42,8.77-12.01,12.92-18.08,59.52-86.97,121.22-174.39,184.77-258.42,1.13-1.5,5.16-6.46,5.16-6.46,0,0-2.95,6.12-3.86,7.75Z"/>
  <path d="M396.07,591.68c-.06.07-.13.14-.21.2l1.29,1.29c.42-2.12.05-2.61-1.09-1.49Z"/>
  <path d="M749.91,337.33l-1.29-2.58c-.86,2.35-1.43,3.98,1.29,2.58Z"/>
</svg>